<?xml version="1.0" standalone="no"?>
<!DOCTYPE svg PUBLIC "-//W3C//DTD SVG 20010904//EN"
 "http://www.w3.org/TR/2001/REC-SVG-20010904/DTD/svg10.dtd">
<svg version="1.0" xmlns="http://www.w3.org/2000/svg"
 width="303.000000pt" height="303.000000pt" viewBox="0 0 303.000000 303.000000"
 preserveAspectRatio="xMidYMid meet">
<metadata>
Created by potrace 1.11, written by Peter Selinger 2001-2013
</metadata>
<g transform="translate(0.000000,303.000000) scale(0.100000,-0.100000)"
fill="#000000" stroke="none">
<path d="M435 3020 c-46 -18 -60 -47 -63 -140 -3 -70 -7 -88 -18 -83 -13 5
-102 -35 -138 -62 -10 -8 -16 -20 -13 -28 3 -9 -1 -14 -11 -13 -10 1 -28 -22
-49 -62 l-33 -63 3 -1167 c2 -1112 3 -1169 21 -1209 10 -24 23 -40 29 -36 6 3
7 1 3 -5 -11 -18 61 -89 120 -118 65 -32 210 -47 225 -23 6 9 9 10 9 2 0 -19
2126 -16 2181 3 68 24 122 61 112 77 -3 6 -2 7 4 4 9 -6 53 32 51 43 -1 3 5
16 14 30 38 60 39 101 36 1270 l-3 1135 -23 50 c-39 84 -152 174 -219 175 -25
0 -24 0 -27 90 -1 55 -23 115 -40 111 -5 -2 -12 3 -17 10 -13 22 -147 25 -186
4 -18 -10 -30 -22 -27 -26 3 -5 1 -9 -5 -9 -15 0 -25 -45 -24 -112 l0 -58 -46
-1 c-240 -3 -632 -1 -637 3 -3 3 -6 39 -8 79 -2 44 -8 75 -15 77 -6 2 -9 7 -6
12 3 5 -7 17 -22 28 -23 16 -44 19 -110 18 -71 -1 -85 -4 -106 -24 -29 -27
-47 -89 -36 -120 5 -12 4 -24 -1 -27 -5 -3 -6 -15 -1 -28 l9 -22 -327 2 c-179
1 -336 2 -348 2 -22 1 -23 5 -23 71 0 78 -15 112 -59 134 -28 15 -144 19 -176
6z m1092 -25 c0 -8 -4 -12 -9 -9 -5 3 -6 10 -3 15 9 13 12 11 12 -6z m-937
-214 c1 -202 2 -200 -74 -194 -70 4 -67 -5 -64 185 l3 173 65 6 c36 3 66 6 67
7 1 1 2 -79 3 -177z m978 162 c10 -10 13 -55 11 -185 l-1 -173 -64 0 c-55 0
-65 3 -71 20 -8 25 -10 300 -2 323 10 28 102 39 127 15z m846 9 c3 -5 -1 -9
-9 -9 -8 0 -12 4 -9 9 3 4 7 8 9 8 2 0 6 -4 9 -8z m144 -15 c8 -6 12 -21 9
-34 -2 -13 0 -23 5 -23 5 0 6 -5 2 -11 -11 -18 -10 -278 1 -271 6 3 7 1 2 -3
-9 -11 -128 -6 -142 5 -6 5 -10 33 -9 62 1 29 -4 59 -10 67 -6 8 -6 12 -1 9 7
-4 11 28 11 94 0 80 4 103 16 112 19 14 97 9 116 -7z m-1154 -105 c3 -5 -1 -9
-9 -9 -8 0 -12 4 -9 9 3 4 7 8 9 8 2 0 6 -4 9 -8z m-44 -136 c-4 -18 -3 -41 2
-50 6 -10 5 -16 -1 -16 -6 0 -8 -8 -5 -17 28 -87 52 -103 154 -103 74 0 116
13 104 32 -4 6 -3 8 3 5 22 -14 38 26 39 100 1 40 3 76 6 78 4 4 464 7 664 5
20 0 22 -5 22 -62 0 -35 1 -71 1 -80 1 -9 15 -30 31 -47 30 -29 33 -30 119
-28 124 3 150 29 146 150 -1 34 3 57 9 58 23 3 42 -4 68 -23 15 -10 34 -16 40
-12 7 4 10 3 5 -1 -8 -9 22 -47 32 -40 4 2 7 -4 8 -13 1 -23 28 -93 34 -88 2
2 3 -57 2 -132 -1 -75 -2 -177 -2 -226 -1 -49 -4 -86 -8 -83 -3 4 -13 1 -21
-6 -9 -6 -13 -7 -10 -2 4 7 -433 10 -1303 10 l-1309 -1 -1 158 c0 87 -1 177
-1 201 -1 74 12 121 48 170 19 26 50 55 69 64 19 9 32 20 30 24 -3 4 4 5 15 2
18 -5 20 -14 20 -74 0 -62 3 -72 29 -101 28 -32 32 -33 116 -35 82 -2 87 -1
118 27 30 27 32 33 34 102 1 40 2 76 3 80 0 10 152 13 446 10 l252 -3 -8 -33z
m-860 -672 c29 0 50 5 58 15 10 13 12 13 10 2 -2 -12 15 -15 92 -15 78 0 95 2
92 14 -2 13 0 13 10 0 18 -21 99 -21 116 -1 10 13 12 13 10 2 -2 -11 9 -15 45
-16 27 -1 47 3 47 9 0 8 3 8 8 1 4 -6 25 -11 47 -10 30 0 39 4 37 15 -2 13 0
13 10 0 18 -21 99 -21 116 -1 10 13 12 13 10 2 -2 -11 10 -15 55 -16 32 0 61
3 63 7 3 5 10 6 15 2 23 -14 84 -11 97 5 10 13 12 13 10 1 -2 -11 9 -14 52
-14 43 -1 54 3 52 14 -2 13 -1 13 10 0 18 -21 99 -21 116 -1 10 13 12 13 10 1
-2 -11 9 -14 52 -14 43 -1 54 3 52 14 -2 13 -1 13 10 0 13 -15 108 -24 108
-10 0 4 10 6 23 4 12 -1 22 -3 22 -4 0 -1 17 -3 38 -4 20 -1 37 2 37 7 0 4 6
5 13 0 16 -10 29 -11 48 -2 9 5 19 5 23 2 10 -10 76 -10 76 0 0 4 6 5 13 0 17
-11 68 -11 91 0 10 5 16 5 13 0 -10 -16 77 -9 91 7 10 12 12 13 10 0 -2 -11 9
-14 52 -14 43 -1 54 3 52 14 -2 13 -1 13 10 0 18 -21 99 -21 116 -1 10 13 12
13 10 1 -2 -11 9 -14 52 -14 43 -1 54 3 52 14 -2 13 0 12 10 -1 7 -8 26 -15
41 -14 15 1 30 -2 33 -6 7 -12 6 -1741 -1 -1764 -14 -41 -36 -84 -45 -90 -6
-4 -7 -11 -4 -17 4 -6 2 -8 -4 -4 -6 3 -13 2 -17 -4 -8 -13 -81 -50 -109 -56
-11 -2 -528 -4 -1148 -4 -969 0 -1133 2 -1163 14 -19 8 -35 12 -35 9 0 -4 -20
14 -45 39 -24 25 -47 43 -51 39 -4 -3 -4 -1 -1 5 4 7 0 29 -9 49 -13 33 -15
143 -15 909 0 651 -3 875 -12 886 -10 13 -10 13 4 3 14 -11 23 -11 64 -3 6 1
12 1 15 0 18 -8 80 -5 80 4 0 8 3 8 8 1 4 -6 25 -11 47 -10 30 0 39 4 37 15
-2 13 0 13 10 0 8 -10 30 -16 58 -16z"/>
<path d="M1442 1768 c-65 -61 -152 -148 -152 -152 0 -2 6 -21 14 -42 15 -45 8
-75 -26 -98 -26 -18 -69 -21 -85 -5 -6 6 -20 9 -31 7 -11 -1 -106 -86 -211
-187 l-191 -185 0 -92 c0 -112 4 -124 41 -124 16 0 38 -9 49 -20 43 -43 18
-120 -39 -120 -49 0 -52 -9 -49 -121 l3 -104 347 -3 c331 -2 348 -1 357 17 6
10 8 21 5 24 -10 9 6 64 24 85 41 47 125 44 158 -5 10 -16 21 -48 24 -73 l5
-45 279 -3 c178 -1 283 1 290 8 6 6 10 114 11 282 1 303 -2 319 -67 437 -133
241 -368 441 -649 551 l-50 20 -57 -52z m248 -105 c197 -107 356 -265 457
-453 54 -100 88 -90 -297 -90 -324 0 -340 1 -340 18 0 24 -53 98 -81 113 -39
21 -118 20 -160 -2 -38 -19 -89 -84 -89 -114 0 -13 -23 -15 -157 -15 l-158 0
148 144 149 143 43 -5 c56 -6 86 2 123 33 35 30 56 96 44 140 -8 28 -4 34 66
102 l74 72 56 -25 c32 -14 86 -41 122 -61z m-313 -463 c8 0 28 -13 44 -29 40
-41 41 -97 0 -140 -16 -17 -36 -32 -45 -32 -9 -1 -22 -2 -28 -3 -29 -4 -71 19
-89 48 -23 38 -24 79 -2 113 19 28 70 55 91 48 8 -3 20 -5 29 -5z m-178 -179
c58 -113 222 -117 289 -7 l27 45 343 1 342 0 0 -240 0 -240 -230 0 -230 0 0
23 c0 12 -10 38 -21 57 -37 59 -91 89 -156 84 -71 -5 -125 -50 -145 -121 l-12
-43 -293 0 -293 0 0 53 c0 51 1 53 35 66 102 36 106 191 6 237 -40 19 -40 20
-41 72 l0 52 180 0 180 0 19 -39z"/>
<path d="M1694 1519 c-93 -26 -133 -156 -73 -233 46 -58 133 -74 196 -35 145
90 42 315 -123 268z m113 -91 c11 -13 16 -39 14 -71 -2 -29 -47 -67 -79 -67
-61 0 -108 71 -81 122 30 57 106 66 146 16z"/>
<path d="M1900 992 c-62 -28 -92 -72 -92 -135 0 -130 169 -185 249 -81 34 45
36 118 4 162 -35 49 -114 75 -161 54z m79 -67 c76 -39 39 -157 -44 -141 -76
15 -90 112 -21 142 39 17 32 17 65 -1z"/>
<path d="M1155 882 c-89 -18 -121 -133 -55 -197 51 -49 129 -42 172 15 61 83
-15 202 -117 182z m56 -72 c28 -16 25 -65 -5 -85 -51 -34 -108 33 -65 76 21
21 41 24 70 9z"/>
</g>
</svg>
