<?xml version="1.0" encoding="UTF-8" standalone="no"?>
<svg width="281px" height="303px" viewBox="0 0 281 303" version="1.1" xmlns="http://www.w3.org/2000/svg" xmlns:xlink="http://www.w3.org/1999/xlink">
    <!-- Generator: Sketch 49 (51002) - http://www.bohemiancoding.com/sketch -->
    <title>Group 7</title>
    <desc>Created with Sketch.</desc>
    <defs></defs>
    <g id="Setup" stroke="none" stroke-width="1" fill="none" fill-rule="evenodd">
        <g id="Group-7">
            <g id="Page-1" opacity="0.437849813" fill="#000000">
                <path d="M253.667217,22.2740172 L253.667217,10.6649872 C253.667217,4.78494873 248.881552,0 243.000634,0 L234.190046,0 C228.309128,0 223.528858,4.78494873 223.528858,10.6649872 L223.528858,22.0420524 L154.86239,22.0420524 L154.86239,10.6649872 C154.86239,4.78494873 150.076725,0 144.201202,0 L135.390615,0 C129.509696,0 124.724031,4.78494873 124.724031,10.6649872 L124.724031,22.0420524 L56.0629584,22.0420524 L56.0629584,10.6649872 C56.0629584,4.78494873 51.2772935,0 45.3963749,0 L36.5857878,0 C30.7048692,0 25.9245997,4.78494873 25.9245997,10.6649872 L25.9245997,22.4844039 C11.1090012,24.8849701 0,37.6160625 0,53.0174477 L0,272.024605 C0,289.0929 13.9091817,303 30.9800315,303 L250.019969,303 C267.090818,303 281,289.0929 281,272.024605 L281,53.0174477 C281,37.173711 269.027745,24.0865795 253.667217,22.2740172 Z M231.621866,10.6649872 C231.621866,9.25162014 232.781863,8.09179604 234.190046,8.09179604 L243.000634,8.09179604 C244.414212,8.09179604 245.57421,9.25162014 245.57421,10.6649872 L245.57421,41.5109137 C245.57421,42.9242807 244.414212,44.0841048 243.000634,44.0841048 L234.190046,44.0841048 C232.781863,44.0841048 231.621866,42.9242807 231.621866,41.5109137 L231.621866,10.6649872 Z M132.83862,10.6649872 C132.83862,9.25162014 133.998618,8.09179604 135.412196,8.09179604 L144.222783,8.09179604 C145.630967,8.09179604 146.790964,9.25162014 146.790964,10.6649872 L146.790964,41.5109137 C146.790964,42.9242807 145.630967,44.0841048 144.222783,44.0841048 L135.412196,44.0841048 C133.998618,44.0841048 132.83862,42.9242807 132.83862,41.5109137 L132.83862,10.6649872 Z M34.0391882,10.6649872 C34.0391882,9.25162014 35.1937906,8.09179604 36.6073691,8.09179604 L45.4179563,8.09179604 C46.8315349,8.09179604 47.9915326,9.25162014 47.9915326,10.6649872 L47.9915326,41.5109137 C47.9915326,42.9242807 46.8315349,44.0841048 45.4179563,44.0841048 L36.6073691,44.0841048 C35.1937906,44.0841048 34.0391882,42.9242807 34.0391882,41.5109137 L34.0391882,10.6649872 Z M25.946181,30.7218523 L25.946181,41.5109137 C25.946181,47.3909521 30.7264506,52.1759009 36.6073691,52.1759009 L45.4179563,52.1759009 C51.2988749,52.1759009 56.0845398,47.3909521 56.0845398,41.5109137 L56.0845398,30.1338485 L124.745613,30.1338485 L124.745613,41.5109137 C124.745613,47.3909521 129.531278,52.1759009 135.412196,52.1759009 L144.222783,52.1759009 C150.098307,52.1759009 154.883971,47.3909521 154.883971,41.5109137 L154.883971,30.1338485 L223.55044,30.1338485 L223.55044,41.5109137 C223.55044,47.3909521 228.330709,52.1759009 234.211628,52.1759009 L243.022215,52.1759009 C248.903134,52.1759009 253.688798,47.3909521 253.688798,41.5109137 L253.667217,30.4521258 C264.560405,32.1999537 272.906993,41.6403824 272.906993,53.0174477 L272.906993,92.4029163 L8.11458853,92.4029163 L8.11458853,53.0174477 C8.11458853,42.1043121 15.6572712,33.0199224 25.946181,30.7218523 Z M250.019969,294.908204 L30.9800315,294.908204 C18.3549403,294.908204 8.09300718,284.647807 8.09300718,272.024605 L8.11458853,100.494712 L272.928574,100.494712 L272.928574,272.024605 C272.906993,284.647807 262.64506,294.908204 250.019969,294.908204 Z" id="Fill-1"></path>
            </g>
            <g id="Page-1" transform="translate(65.000000, 121.000000)" fill="#F5A623">
                <path d="M97.8439406,35.4458031 C102.756967,35.4458031 106.746674,39.4375122 106.746674,44.3505391 C106.746674,49.2635659 102.756967,53.2532721 97.8439406,53.2532721 C92.9369224,53.2532721 88.9392047,49.2635659 88.9392047,44.3505391 C88.9392047,39.4375122 92.9369224,35.4458031 97.8439406,35.4458031 M97.8439406,59.1436969 C106.003611,59.1436969 112.637098,52.5102094 112.637098,44.3505391 C112.637098,36.1888659 106.003611,29.5553784 97.8439406,29.5553784 C89.6902789,29.5553784 83.0487799,36.1888659 83.0487799,44.3505391 C83.0487799,52.5102094 89.6902789,59.1436969 97.8439406,59.1436969" id="Fill-1"></path>
                <path d="M118.56758,88.1391674 C122.965871,88.1391674 126.540984,91.7142807 126.540984,96.1105685 C126.540984,100.508859 122.965871,104.083972 118.56758,104.083972 C114.171293,104.083972 110.596179,100.508859 110.596179,96.1105685 C110.596179,91.7142807 114.171293,88.1391674 118.56758,88.1391674 M118.56758,109.974397 C126.212515,109.974397 132.431409,103.755503 132.431409,96.1105685 C132.431409,88.4676372 126.212515,82.2487427 118.56758,82.2487427 C110.924649,82.2487427 104.703752,88.4676372 104.703752,96.1105685 C104.703752,103.755503 110.924649,109.974397 118.56758,109.974397" id="Fill-2"></path>
                <path d="M41.9039328,110.889706 C38.7894784,110.889706 36.2558547,108.356083 36.2558547,105.241628 C36.2558547,102.135185 38.7894784,99.6015615 41.9039328,99.6015615 C45.0103758,99.6015615 47.5439995,102.135185 47.5439995,105.241628 C47.5439995,108.356083 45.0103758,110.889706 41.9039328,110.889706 M41.9039328,93.7091339 C35.5428349,93.7091339 30.3634271,98.8885417 30.3634271,105.241628 C30.3634271,111.602726 35.5428349,116.782134 41.9039328,116.782134 C48.2650307,116.782134 53.4364271,111.602726 53.4364271,105.241628 C53.4364271,98.8885417 48.2650307,93.7091339 41.9039328,93.7091339" id="Fill-3"></path>
                <path d="M144.324419,124.080572 L97.9841411,124.080572 C97.9841411,124.034507 97.9841411,123.978426 97.9841411,123.93236 C97.9841411,114.881415 90.6135995,107.510874 81.5626544,107.510874 C72.5097065,107.510874 65.1391648,114.881415 65.1391648,123.93236 C65.1391648,123.978426 65.1391648,124.034507 65.1391648,124.080572 L5.89042474,124.080572 L5.89042474,113.293144 C12.4397919,112.461955 17.5250651,106.853934 17.5250651,100.078243 C17.5250651,93.3025523 12.4397919,87.6925286 5.89042474,86.8553313 L5.89042474,76.0679026 L42.3565802,76.0679026 C43.1477117,79.1883656 44.830118,82.0284276 47.2315526,84.2435958 C50.3299841,87.1056893 54.3597477,88.6859495 58.5837891,88.6859495 C62.799819,88.6859495 66.837594,87.1056893 69.9360255,84.2435958 C72.3374602,82.0284276 74.0118549,79.1883656 74.8029865,76.0679026 L144.324419,76.0679026 L144.324419,124.080572 Z M47.7783346,72.8753365 C47.7482917,72.5308438 47.7322687,72.2344198 47.7322687,71.9520159 C47.7322687,65.975468 52.5992297,61.108507 58.5837891,61.108507 C64.560337,61.108507 69.4272979,65.975468 69.4272979,71.9520159 C69.4272979,72.2344198 69.411275,72.5308438 69.381232,72.8753365 C68.9105589,78.4372914 64.1697784,82.7955247 58.5837891,82.7955247 C52.9897883,82.7955247 48.2490078,78.4372914 47.7783346,72.8753365 Z M40.5900536,40.5090448 C42.6389841,41.6046117 44.9462841,42.191451 47.2936414,42.191451 C55.1328534,42.191451 61.5099742,35.8143302 61.5099742,27.9751182 C61.5099742,25.7218956 60.9932352,23.5467846 59.9998143,21.5759659 L74.9511984,6.98309453 C87.7434945,11.7639323 99.2819974,18.1009958 109.274289,25.8460732 C117.614217,32.3173286 124.904644,39.7800021 130.953295,48.0277984 C137.320402,56.7262393 141.25603,65.0120901 143.204818,70.175475 L75.2255909,70.175475 C74.3403247,61.7814695 67.2141326,55.2160794 58.5837891,55.2160794 C49.9534456,55.2160794 42.8272534,61.7814695 41.9359786,70.175475 L10.1785578,70.175475 L40.5900536,40.5090448 Z M150.214844,73.0856372 C150.214844,73.0475828 150.206832,73.0075255 150.206832,72.9614596 C150.206832,72.8993708 150.198821,72.8272677 150.190809,72.7651789 C150.182798,72.7271245 150.174786,72.6870672 150.174786,72.6490128 C150.160766,72.5769096 150.144743,72.5068094 150.128721,72.4367091 C150.128721,72.4206862 150.128721,72.4046633 150.120709,72.3826318 C149.98852,71.8739042 146.763908,59.7305362 135.882345,44.795175 C129.521247,36.0566768 121.838258,28.1633875 113.04368,21.3175964 C102.084005,12.789399 89.3537977,5.88953047 75.2255909,0.810265885 C74.1600669,0.42771875 72.9723682,0.686088281 72.1652138,1.47521693 L54.1875013,19.0163049 C53.1219773,20.0577945 52.9977997,21.7321893 53.9050974,22.9138794 C55.0327102,24.3759706 55.6195495,26.1284771 55.6195495,27.9751182 C55.6195495,32.5676867 51.8862099,36.2990234 47.2936414,36.2990234 C45.3688885,36.2990234 43.5703161,35.6661182 42.0761792,34.4603938 C40.910512,33.5210503 39.2361172,33.6071734 38.1645846,34.648663 L0.89127474,71.0126724 C0.883263281,71.0206839 0.877254687,71.0286953 0.877254687,71.0286953 C0.861231771,71.0447182 0.845208854,71.0607411 0.829185938,71.0747612 C0.783120052,71.1228299 0.74306276,71.1769073 0.696996875,71.224976 C0.680973958,71.2470076 0.664951042,71.2630305 0.640916667,71.2870648 C0.610873698,71.3331307 0.570816406,71.3811995 0.540773438,71.4352768 C0.516739063,71.4593112 0.500716146,71.4753341 0.484693229,71.4973656 C0.446638802,71.5674659 0.40658151,71.639569 0.368527083,71.7016578 C0.352504167,71.7256922 0.344492708,71.7397122 0.33648125,71.7637466 C0.304435417,71.8198268 0.274392448,71.8819156 0.250358073,71.9440044 C0.234335156,71.9760503 0.21831224,72.0060932 0.210300781,72.0381391 C0.188269271,72.0842049 0.172246354,72.1402852 0.156223437,72.186351 C0.140200521,72.2183969 0.132189063,72.2484398 0.124177604,72.2884971 C0.102146094,72.3585974 0.0781117187,72.4367091 0.0620888021,72.5068094 C0.0620888021,72.5308438 0.0540773438,72.5548781 0.0540773438,72.5769096 C0.0400572917,72.6490128 0.0320458333,72.719113 0.024034375,72.7892133 C0.0160229167,72.8132477 0.0160229167,72.8432906 0.0160229167,72.867325 C0.00801145833,72.9374253 0,73.015537 0,73.0856372 C0,73.1016602 0,73.1096716 0,73.1256945 L0,89.7735049 C0,90.6107023 0.360515625,91.4178568 0.993420833,91.9726503 C1.62031745,92.5354552 2.45751484,92.7938247 3.29471224,92.6916786 C3.61517057,92.6536242 3.91159453,92.6376013 4.2020099,92.6376013 C8.3018737,92.6376013 11.6346404,95.9783794 11.6346404,100.078243 C11.6346404,104.178107 8.3018737,107.510874 4.2020099,107.510874 C3.91159453,107.510874 3.61517057,107.494851 3.29471224,107.454793 C2.46352344,107.35465 1.62031745,107.619028 0.993420833,108.175825 C0.360515625,108.730618 0,109.537773 0,110.380979 L0,127.02278 C0,128.649107 1.32189062,129.973 2.94220807,129.973 L68.4499,129.973 C69.3491862,129.973 70.2024065,129.558407 70.7572,128.853399 C71.3119935,128.14839 71.5242971,127.227073 71.3119935,126.349818 C71.1257271,125.552678 71.0315924,124.737512 71.0315924,123.93236 C71.0315924,118.128059 75.75635,113.401298 81.5626544,113.401298 C87.366956,113.401298 92.0917135,118.128059 92.0917135,123.93236 C92.0917135,124.737512 91.9995818,125.552678 91.8113125,126.349818 C91.6070203,127.227073 91.8113125,128.14839 92.366106,128.853399 C92.9289109,129.558407 93.7741198,129.973 94.6754089,129.973 L147.272636,129.973 C148.892953,129.973 150.214844,128.649107 150.214844,127.02278 L150.214844,73.1256945 C150.214844,73.1096716 150.214844,73.1016602 150.214844,73.0856372 Z" id="Fill-4"></path>
            </g>
        </g>
    </g>
</svg>